# ASF file generated by Tido's ASF writer for MATLAB.
:version 1.10
:name VICON
:units
  mass 1
  length 0.45000000000000001
  angle deg
:documentation
   .ast/.asf automatically generated from VICON data using
   VICON BodyBuilder and BodyLanguage model FoxedUp or BRILLIANT.MOD
:root
  axis xyz
  order tx ty tz rx ry rz 
  position 0 0 0
  orientation 0 0 0
:bonedata
  begin
    id 1
    name lhipjoint
    direction 0.44017800000000001 -0.82263900000000001 0.359871
    length 1.1390085000000001
    axis 0 0 0 xyz
  end
  begin
    id 2
    name lfemur
    direction 0.34201999999999999 -0.939693 0
    length 3.5465939999999998
    axis 0 0 20 xyz
    dof rx ry rz 
    limits (-160 20)
           (-70 70)
           (-60 70)
  end
  begin
    id 3
    name ltibia
    direction 0.34201999999999999 -0.939693 0
    length 3.7970234999999999
    axis 0 0 20 xyz
    dof rx 
    limits (-10 170)
  end
  begin
    id 4
    name lfoot
    direction 0.088635099999999994 -0.24352299999999999 0.96583699999999995
    length 1.1853629999999999
    axis -90 7.62852e-016 20 xyz
    dof rx rz 
    limits (-45 90)
           (-70 20)
  end
  begin
    id 5
    name ltoes
    direction 1.53703e-011 -4.2171700000000001e-011 1
    length 0.59142150000000004
    axis -90 7.62852e-016 20 xyz
    dof rx 
    limits (-90 20)
  end
  begin
    id 6
    name rhipjoint
    direction -0.399779 -0.83977299999999999 0.367367
    length 1.115766
    axis 0 0 0 xyz
  end
  begin
    id 7
    name rfemur
    direction -0.34201999999999999 -0.939693 0
    length 3.4866269999999999
    axis 0 0 -20 xyz
    dof rx ry rz 
    limits (-160 20)
           (-70 70)
           (-70 60)
  end
  begin
    id 8
    name rtibia
    direction -0.34201999999999999 -0.939693 0
    length 3.9349440000000002
    axis 0 0 -20 xyz
    dof rx 
    limits (-10 170)
  end
  begin
    id 9
    name rfoot
    direction -0.108514 -0.29813899999999999 0.94833400000000001
    length 1.1974590000000001
    axis -90 -7.62852e-016 -20 xyz
    dof rx rz 
    limits (-45 90)
           (-20 70)
  end
  begin
    id 10
    name rtoes
    direction -1.5339199999999999e-011 -4.2207699999999999e-011 1
    length 0.59392350000000005
    axis -90 -7.62852e-016 -20 xyz
    dof rx 
    limits (-90 20)
  end
  begin
    id 11
    name lowerback
    direction 0.011325699999999999 0.99986600000000003 0.0118602
    length 1.164123
    axis 0 0 0 xyz
    dof rx ry rz 
    limits (-20 45)
           (-30 30)
           (-30 30)
  end
  begin
    id 12
    name upperback
    direction -0.016474699999999998 0.99519299999999999 -0.096537499999999998
    length 1.135656
    axis 0 0 0 xyz
    dof rx ry rz 
    limits (-20 45)
           (-30 30)
           (-30 30)
  end
  begin
    id 13
    name thorax
    direction -0.019430099999999999 0.99433000000000005 -0.10455200000000001
    length 1.1524455
    axis 0 0 0 xyz
    dof rx ry rz 
    limits (-20 45)
           (-30 30)
           (-30 30)
  end
  begin
    id 14
    name lowerneck
    direction 0.014854300000000001 0.995587 -0.092657000000000003
    length 0.772119
    axis 0 0 0 xyz
    dof rx ry rz 
    limits (-20 45)
           (-30 30)
           (-30 30)
  end
  begin
    id 15
    name upperneck
    direction -0.0135467 0.99365599999999998 -0.111639
    length 0.76021650000000007
    axis 0 0 0 xyz
    dof rx ry rz 
    limits (-20 45)
           (-30 30)
           (-30 30)
  end
  begin
    id 16
    name head
    direction -0.0061534900000000002 0.99954699999999996 -0.029447999999999998
    length 0.78578999999999999
    axis 0 0 0 xyz
    dof rx ry rz 
    limits (-20 45)
           (-30 30)
           (-30 30)
  end
  begin
    id 17
    name lclavicle
    direction 0.98826700000000001 0.14988499999999999 0.029371299999999999
    length 2.012499
    axis 0 0 0 xyz
    dof ry rz 
    limits (-20 10)
           (0 20)
  end
  begin
    id 18
    name lhumerus
    direction 1 -4.4898600000000001e-011 -1.1483300000000001e-027
    length 2.4171659999999999
    axis 180 -30 -90 xyz
    dof rx ry rz 
    limits (-60 90)
           (-90 90)
           (-90 90)
  end
  begin
    id 19
    name lradius
    direction 0.99999800000000005 0.00170963 -0.00098705499999999992
    length 1.773954
    axis 180 -30 -90 xyz
    dof rx 
    limits (-10 170)
  end
  begin
    id 20
    name lwrist
    direction 0.99999800000000005 7.53149e-005 -0.00194706
    length 0.88697700000000002
    axis 4.6505600000000004e-015 90 90 xyz
    dof ry 
    limits (-180 0)
  end
  begin
    id 21
    name lhand
    direction 1 -4.48973e-011 -1.3174599999999999e-026
    length 0.5306265
    axis 8.4064999999999996e-015 90 90 xyz
    dof rx rz 
    limits (-90 90)
           (-45 45)
  end
  begin
    id 22
    name lfingers
    direction 1 -4.49107e-011 -2.6349199999999999e-026
    length 0.42780555000000003
    axis 1.6812999999999999e-014 90 90 xyz
    dof rx 
    limits (0 90)
  end
  begin
    id 23
    name lthumb
    direction 0.70710700000000004 -6.3504800000000005e-011 0.70710700000000004
    length 0.6142455
    axis -90 45 2.8529899999999998e-015 xyz
    dof rx rz 
    limits (-45 45)
           (-45 45)
  end
  begin
    id 24
    name rclavicle
    direction -0.996699 0.064289499999999999 -0.049572499999999999
    length 2.0817494999999999
    axis 0 0 0 xyz
    dof ry rz 
    limits (-10 20)
           (-20 0)
  end
  begin
    id 25
    name rhumerus
    direction -1 -4.4891899999999998e-011 -2.4105900000000001e-027
    length 2.474145
    axis 180 30 90 xyz
    dof rx ry rz 
    limits (-90 60)
           (-90 90)
           (-90 90)
  end
  begin
    id 26
    name rradius
    direction -0.99999899999999997 0.0011810099999999999 -0.00068185800000000003
    length 1.5677145000000001
    axis 180 30 90 xyz
    dof rx 
    limits (-10 170)
  end
  begin
    id 27
    name rwrist
    direction -0.99999899999999997 0.000321823 -0.00132288
    length 0.78385499999999997
    axis 4.6505600000000004e-015 -90 -90 xyz
    dof ry 
    limits (-180 0)
  end
  begin
    id 28
    name rhand
    direction -1 -4.4902199999999998e-011 -1.3174599999999999e-026
    length 0.60719400000000001
    axis 8.4064999999999996e-015 -90 -90 xyz
    dof rx rz 
    limits (-90 90)
           (-45 45)
  end
  begin
    id 29
    name rfingers
    direction -1 -4.4917800000000002e-011 -2.6349199999999999e-026
    length 0.48953249999999998
    axis 1.6812999999999999e-014 -90 -90 xyz
    dof rx 
    limits (0 90)
  end
  begin
    id 30
    name rthumb
    direction -0.70710700000000004 -6.3471300000000002e-011 0.70710700000000004
    length 0.70287750000000004
    axis -90 -45 -2.8529899999999998e-015 xyz
    dof rx rz 
    limits (-45 45)
           (-45 45)
  end
:hierarchy
begin
  root lhipjoint rhipjoint lowerback 
  lhipjoint lfemur 
  lfemur ltibia 
  ltibia lfoot 
  lfoot ltoes 
  rhipjoint rfemur 
  rfemur rtibia 
  rtibia rfoot 
  rfoot rtoes 
  lowerback upperback 
  upperback thorax 
  thorax lowerneck lclavicle rclavicle 
  lowerneck upperneck 
  upperneck head 
  lclavicle lhumerus 
  lhumerus lradius 
  lradius lwrist 
  lwrist lhand lthumb 
  lhand lfingers 
  rclavicle rhumerus 
  rhumerus rradius 
  rradius rwrist 
  rwrist rhand rthumb 
  rhand rfingers 
end

# AMC file generated by Tido's AMC writer for MATLAB on 27-Nov-2005 at 18:24:20
# Corresponding ASF file: S:\data_MoCap\MoCaDaDB\HDM\Bonn_ASF_AMC_Use IK_on\björn\bjorn.asf
# Number of frames: 542
# Sampling rate: 120
:fully-specified
:degrees
288
root 5.8834349999999995 8.5059450000000005 -11.987145000000002 -1.0910899999999999 59.5822 362.464 
lfemur -24.650400000000001 -0.036304900000000001 -11.385199999999999 
ltibia 54.962899999999998 
lfoot -8.0277799999999999 -2.8357899999999998 
ltoes -25.011900000000001 
rfemur -1.7966500000000001 -2.2837200000000002 25.4693 
rtibia 32.235100000000003 
rfoot -18.921099999999999 19.061800000000002 
rtoes 9.4796999999999993 
lowerback -0.84402200000000005 1.66937 2.87968 
upperback 10.857799999999999 2.4667699999999999 -1.23946 
thorax 12.347300000000001 1.6861699999999999 -2.6410800000000001 
lowerneck 3.09416 -8.8725000000000005 1.6294200000000001 
upperneck 7.2749899999999998 -12.199400000000001 10.1356 
head 2.41845 -5.7616399999999999 2.8384 
lclavicle 9.0446999999999996e-015 3.18055e-015 
lhumerus -34.897100000000002 16.785900000000002 85.324799999999996 
lradius 13.5801 
lwrist -46.588000000000001 
lhand -5.5120199999999997 -5.6882400000000004 
lfingers 7.1250200000000001 
lthumb 20.301400000000001 23.270700000000001 
rclavicle 9.0446999999999996e-015 3.18055e-015 
rhumerus -22.735299999999999 1.79843 -95.105999999999995 
rradius 71.335800000000006 
rwrist -0.061823299999999998 
rhand -12.913500000000001 15.427899999999999 
rfingers 7.1250200000000001 
rthumb 13.176500000000001 -14.1358 
289
root 5.9484599999999999 8.5059000000000005 -11.961135000000001 -1.2199599999999999 58.975299999999997 362.21499999999997 
lfemur -25.1921 -0.58896499999999996 -11.2005 
ltibia 52.849499999999999 
lfoot -8.1990800000000004 -3.2754500000000002 
ltoes -25.218699999999998 
rfemur -1.02488 -2.37351 25.359999999999999 
rtibia 31.598700000000001 
rfoot -18.736499999999999 19.8551 
rtoes 9.8492200000000008 
lowerback -0.81281499999999995 1.75657 2.9881600000000001 
upperback 10.821 2.5755499999999998 -1.25543 
thorax 12.301500000000001 1.7481100000000001 -2.7078899999999999 
lowerneck 3.0694300000000001 -8.8476099999999995 1.57443 
upperneck 7.3810399999999996 -12.1797 10.1424 
head 2.4619 -5.7476000000000003 2.8478699999999999 
lclavicle 2.6637099999999999e-014 -8.2495599999999999e-015 
lhumerus -35.291600000000003 14.132 87.059700000000007 
lradius 14.249499999999999 
lwrist -43.513300000000001 
lhand -5.7219499999999996 -6.4226999999999999 
lfingers 7.1250200000000001 
lthumb 20.099599999999999 22.557600000000001 
rclavicle 2.6637099999999999e-014 -8.2495599999999999e-015 
rhumerus -22.851700000000001 2.0641799999999999 -95.060400000000001 
rradius 73.281899999999993 
rwrist -0.11433599999999999 
rhand -13.4063 15.4293 
rfingers 7.1250200000000001 
rthumb 12.701499999999999 -14.164400000000001 
290
root 6.013395 8.5047750000000004 -11.93463 -1.32731 58.378399999999999 361.97500000000002 
lfemur -25.714700000000001 -1.1788400000000001 -10.976599999999999 
ltibia 50.673000000000002 
lfoot -8.3077799999999993 -3.7364899999999999 
ltoes -24.947099999999999 
rfemur -0.28595599999999999 -2.5633300000000001 25.209800000000001 
rtibia 30.986499999999999 
rfoot -18.474900000000002 20.8108 
rtoes 10.6037 
lowerback -0.81098899999999996 1.8468500000000001 3.1127400000000001 
upperback 10.7918 2.6890100000000001 -1.29037 
thorax 12.286099999999999 1.81579 -2.8027199999999999 
lowerneck 3.0618400000000001 -8.82883 1.62595 
upperneck 7.4449699999999996 -12.1569 10.082000000000001 
head 2.4750200000000002 -5.7331899999999996 2.8182499999999999 
lclavicle 1.73103e-014 -3.9954899999999998e-015 
lhumerus -35.639299999999999 11.336600000000001 88.778599999999997 
lradius 14.9115 
lwrist -40.4054 
lhand -5.93405 -7.1273099999999996 
lfingers 7.1250200000000001 
lthumb 19.895800000000001 21.874300000000002 
rclavicle 1.73103e-014 -3.9954899999999998e-015 
rhumerus -23.021599999999999 2.2024699999999999 -95.084500000000006 
rradius 75.141900000000007 
rwrist 0.18822800000000001 
rhand -14.0219 15.607200000000001 
rfingers 7.1250200000000001 
rthumb 12.108000000000001 -14.022500000000001 
291
root 6.0781049999999999 8.5030200000000011 -11.906325000000001 -1.46801 57.780200000000001 361.70600000000002 
lfemur -26.1799 -1.70017 -10.7194 
ltibia 48.456699999999998 
lfoot -8.3254000000000001 -4.1837400000000002 
ltoes -25.011399999999998 
rfemur 0.45870699999999998 -2.76274 25.076899999999998 
rtibia 30.392399999999999 
rfoot -18.1843 21.741099999999999 
rtoes 11.148199999999999 
lowerback -0.80396900000000004 1.93743 3.2298399999999998 
upperback 10.765499999999999 2.8026499999999999 -1.3141099999999999 
thorax 12.2704 1.8821300000000001 -2.88124 
lowerneck 3.06237 -8.8095599999999994 1.62646 
upperneck 7.5116500000000004 -12.1372 10.0724 
head 2.4955799999999999 -5.7206799999999998 2.8145699999999998 
lclavicle -9.3900899999999998e-014 3.0563100000000002e-014 
lhumerus -36.0886 8.9739199999999997 90.320800000000006 
lradius 15.555300000000001 
lwrist -37.8324 
lhand -6.3517599999999996 -7.7254399999999999 
lfingers 7.1250200000000001 
lthumb 19.494199999999999 21.317299999999999 
rclavicle -9.3900899999999998e-014 3.0563100000000002e-014 
rhumerus -23.0639 2.4313899999999999 -94.996200000000002 
rradius 76.850200000000001 
rwrist 0.40145599999999998 
rhand -14.721 15.762700000000001 
rfingers 7.1250200000000001 
rthumb 11.4338 -13.9055 
292
root 6.1427700000000005 8.499509999999999 -11.877795000000001 -1.544 57.190199999999997 361.48500000000001 
lfemur -26.6297 -2.0897299999999999 -10.508699999999999 
ltibia 46.218400000000003 
lfoot -8.2223400000000009 -4.4248099999999999 
ltoes -25.468399999999999 
rfemur 1.1604699999999999 -3.0575100000000002 24.8872 
rtibia 29.832599999999999 
rfoot -17.860499999999998 22.7577 
rtoes 11.799899999999999 
lowerback -0.82142599999999999 2.0236900000000002 3.3135500000000002 
upperback 10.724299999999999 2.91066 -1.3330299999999999 
thorax 12.2499 1.9412199999999999 -2.9360200000000001 
lowerneck 3.0848800000000001 -8.7854500000000009 1.6078699999999999 
upperneck 7.5853000000000002 -12.109 10.0318 
head 2.5129299999999999 -5.7055400000000001 2.80491 
lclavicle 8.2868399999999996e-015 -7.8768399999999996e-015 
lhumerus -36.557899999999997 6.4896000000000003 91.914299999999997 
lradius 16.211600000000001 
lwrist -35.197000000000003 
lhand -6.8142500000000004 -8.1422000000000008 
lfingers 7.1250200000000001 
lthumb 19.049499999999998 20.944900000000001 
rclavicle 8.2868399999999996e-015 -7.8768399999999996e-015 
rhumerus -23.2011 2.6272600000000002 -94.904600000000002 
rradius 78.555599999999998 
rwrist 0.72198399999999996 
rhand -15.468299999999999 15.9079 
rfingers 7.1250200000000001 
rthumb 10.713100000000001 -13.7989 
